<svg xmlns="http://www.w3.org/2000/svg" aria-hidden="true" style="position:absolute;width:0;height:0;overflow:hidden"><defs><symbol id="icon-check" viewBox="0 0 32 32"><path fill="#82e219" d="M16 32A15.997 15.997 0 0 1 0 16 16.003 16.003 0 0 1 16 0a16.002 16.002 0 0 1 11.314 27.314A16 16 0 0 1 16 32m-.412-9.529 8.889-10.667-2.731-2.276-7.644 9.172-3.956-3.957-2.514 2.514 6.709 6.709 1.246-1.495z" style="fill:var(--color1, #82e219)"/></symbol><symbol id="icon-close" viewBox="0 0 32 32"><path fill="#fff" d="m8.532 25.333-1.867-1.867 7.467-7.467-7.467-7.467 1.867-1.867 7.467 7.467 7.467-7.467 1.867 1.867-7.467 7.467 7.467 7.467-1.867 1.867-7.467-7.467z" style="fill:var(--color2, #fff)"/></symbol><symbol id="icon-email" viewBox="0 0 32 32"><path fill="#fff" d="m28.984 14.25-21-11.986a1.997 1.997 0 0 0-2.869 2.403L8.944 16 5.115 27.334a2 2 0 0 0 .253 1.821 2 2 0 0 0 2.623.582l20.99-12.006a2 2 0 0 0 1.022-1.741 1.99 1.99 0 0 0-1.017-1.745l-.004.005zM7 28v-.015L10.718 17H18a.997.997 0 0 0 1-1 .997.997 0 0 0-1-1h-7.282L7.008 4.02 7 4l21 11.979z" style="fill:var(--color2, #fff)"/></symbol><symbol id="icon-menu" viewBox="0 0 32 32"><path fill="#fff" d="M4 24v-2.667h24V24zm0-6.667v-2.667h24v2.667zm0-6.666V8h24v2.667z" style="fill:var(--color2, #fff)"/></symbol><symbol id="icon-minus" viewBox="0 0 32 32"><path fill="#82e219" d="M16 0c8.837 0 16 7.163 16 16s-7.163 16-16 16S0 24.837 0 16 7.163 0 16 0" style="fill:var(--color1, #82e219)"/><path fill="#fff" d="M24 16a.665.665 0 0 1-.666.666H8.667a.665.665 0 1 1 0-1.332h14.667A.665.665 0 0 1 24 16" style="fill:var(--color2, #fff)"/></symbol><symbol id="icon-playstore" viewBox="0 0 32 32"><path fill="#ea4335" d="M15.066 15.282 2.003 29.341l.002.009C2.406 30.877 3.78 32 5.412 32c.653 0 1.265-.179 1.79-.493l.042-.025 14.703-8.603z" style="fill:var(--color3, #ea4335)"/><path fill="#fbbc04" d="m28.28 12.888-.012-.009-6.348-3.731-7.151 6.453 7.177 7.276 6.314-3.694a3.59 3.59 0 0 0 1.859-3.154 3.58 3.58 0 0 0-1.838-3.142z" style="fill:var(--color4, #fbbc04)"/><path fill="#4285f4" d="M2.003 2.658a3.5 3.5 0 0 0-.12.921v24.843q.001.48.121.919l13.51-13.699z" style="fill:var(--color5, #4285f4)"/><path fill="#34a853" d="m15.163 16 6.76-6.854L7.237.512A3.5 3.5 0 0 0 5.414.001c-1.632 0-3.008 1.126-3.409 2.654l-.001.004 13.159 13.342z" style="fill:var(--color6, #34a853)"/></symbol><symbol id="icon-plus" viewBox="0 0 32 32"><path fill="#82e219" d="M16 0c8.837 0 16 7.163 16 16s-7.163 16-16 16S0 24.837 0 16 7.163 0 16 0" style="fill:var(--color1, #82e219)"/><path fill="#fff" d="M24 16a.665.665 0 0 1-.666.666h-6.667v6.667a.665.665 0 1 1-1.332 0v-6.667H8.668a.665.665 0 1 1 0-1.332h6.667V8.667a.665.665 0 1 1 1.332 0v6.667h6.667A.665.665 0 0 1 24 16" style="fill:var(--color2, #fff)"/></symbol></defs></svg>